<svg width="25" height="20" viewBox="0 0 25 20" fill="none" xmlns="http://www.w3.org/2000/svg">
<path fill-rule="evenodd" clip-rule="evenodd" d="M9.18742 5.71144L5.54883 0H8.35946L11.9981 5.71144H9.18742ZM9.96991 6.9397L15.2797 15.2744L16.685 13.0685L12.7805 6.9397H9.96991Z" fill="#9CA2A7"/>
<path fill-rule="evenodd" clip-rule="evenodd" d="M5.92738 9.30412L0 0H2.81064L8.73801 9.30412H5.92738ZM6.70987 10.5324L12.5144 19.6437L13.9197 17.4378L9.5205 10.5324H6.70987Z" fill="#9CA2A7"/>
<path fill-rule="evenodd" clip-rule="evenodd" d="M15.2747 10.8534L11.0723 17.45L12.4776 19.6559L16.6801 13.0593L15.2747 10.8534Z" fill="#9CA2A7"/>
<path fill-rule="evenodd" clip-rule="evenodd" d="M12.7811 6.9397H4.4043L5.91445 9.31017H14.2912L12.7811 6.9397Z" fill="#9CA2A7"/>
<path fill-rule="evenodd" clip-rule="evenodd" d="M0.123047 0H8.35865L9.8688 2.37047H1.6332L0.123047 0Z" fill="#9CA2A7"/>
<path fill-rule="evenodd" clip-rule="evenodd" d="M21.0189 6.2488L22.5252 3.88439H13.6572V6.2488H21.0189Z" fill="#9CA2A7"/>
<path fill-rule="evenodd" clip-rule="evenodd" d="M9.56836 0L17.2816 12.1073L18.6869 9.90143L12.379 0H9.56836Z" fill="#9CA2A7"/>
<path fill-rule="evenodd" clip-rule="evenodd" d="M17.2793 12.1116L18.6124 10.0191L17.2526 7.74183L15.874 9.90569L17.2793 12.1116ZM24.9953 0L21.0223 6.23637L18.2129 6.23433L22.1846 0H24.9953Z" fill="#9CA2A7"/>
<path fill-rule="evenodd" clip-rule="evenodd" d="M13.9863 6.9397H16.775L18.1905 9.31017H15.4965L13.9863 6.9397Z" fill="#9CA2A7"/>
<path fill-rule="evenodd" clip-rule="evenodd" d="M23.4895 2.37047H11.0746L9.56445 0H24.9996L23.4895 2.37047Z" fill="#9CA2A7"/>
</svg>
