<svg width="1629" height="1281" viewBox="0 0 1629 1281" fill="none" xmlns="http://www.w3.org/2000/svg">
<path fill-rule="evenodd" clip-rule="evenodd" d="M598.385 372L361.395 0H544.458L781.448 372H598.385ZM649.35 452L995.189 994.858L1086.72 851.181L832.414 452H649.35Z" fill="#9CA2A7"/>
<path fill-rule="evenodd" clip-rule="evenodd" d="M386.065 606L0 0H183.064L569.128 606H386.065ZM437.03 686L815.103 1279.46L906.635 1135.78L620.094 686H437.03Z" fill="#9CA2A7"/>
<path fill-rule="evenodd" clip-rule="evenodd" d="M994.91 706.929L721.2 1136.57L812.732 1280.24L1086.44 850.605L994.91 706.929Z" fill="#9CA2A7"/>
<path fill-rule="evenodd" clip-rule="evenodd" d="M832.502 452H286.913L385.273 606.394H930.862L832.502 452Z" fill="#9CA2A7"/>
<path fill-rule="evenodd" clip-rule="evenodd" d="M8.23535 0H544.547L642.907 154.394H106.595L8.23535 0Z" fill="#9CA2A7"/>
<path fill-rule="evenodd" clip-rule="evenodd" d="M1369.07 407L1467.17 253H889.57V407H1369.07Z" fill="#9CA2A7"/>
<path fill-rule="evenodd" clip-rule="evenodd" d="M623.278 0L1125.66 788.583L1217.19 644.907L806.342 0H623.278Z" fill="#9CA2A7"/>
<path fill-rule="evenodd" clip-rule="evenodd" d="M1125.61 788.941L1212.42 652.682L1123.85 504.355L1034.08 645.264L1125.61 788.941ZM1628.22 0L1369.45 406.19L1186.47 406.058L1445.16 0H1628.22Z" fill="#9CA2A7"/>
<path fill-rule="evenodd" clip-rule="evenodd" d="M910.956 452H1092.59L1184.78 606.394H1009.32L910.956 452Z" fill="#9CA2A7"/>
<path fill-rule="evenodd" clip-rule="evenodd" d="M1529.99 154.394H721.36L623 0H1628.35L1529.99 154.394Z" fill="#9CA2A7"/>
</svg>
